<?xml version="1.0" encoding="utf-8"?>
<!-- Generator: Adobe Illustrator 16.0.0, SVG Export Plug-In . SVG Version: 6.00 Build 0)  -->
<!DOCTYPE svg PUBLIC "-//W3C//DTD SVG 1.1//EN" "http://www.w3.org/Graphics/SVG/1.1/DTD/svg11.dtd">
<svg version="1.1" id="Layer_1" xmlns="http://www.w3.org/2000/svg" xmlns:xlink="http://www.w3.org/1999/xlink" x="0px" y="0px"
	 width="229.333px" height="59.833px" viewBox="0 0 229.333 59.833" enable-background="new 0 0 229.333 59.833"
	 xml:space="preserve">
<polygon fill="#54C3C7" points="225.345,58.167 2.511,58.167 12.511,45.833 2.511,32.833 225.345,32.833 215.345,45.833 "/>
<g>
	<path fill="#54C3C7" d="M2.979,2.576H7.67l7.383,17.586h0.131l7.317-17.586h4.691v23.229h-3.149V6.709h-0.065l-7.842,19.096h-2.101
		L6.194,6.709H6.128v19.096H2.979V2.576z"/>
	<path fill="#54C3C7" d="M39.506,2.576h2.854l9.941,23.229h-3.675l-2.329-5.742H35.241l-2.297,5.742h-3.675L39.506,2.576z"/>
	<path fill="#54C3C7" d="M54.127,2.576h8.17c1.487,0,2.712,0.202,3.675,0.607c0.962,0.405,1.723,0.919,2.28,1.542
		c0.558,0.623,0.946,1.323,1.165,2.1c0.218,0.776,0.328,1.526,0.328,2.248c0,0.744-0.132,1.459-0.394,2.149
		c-0.263,0.688-0.64,1.312-1.132,1.87c-0.492,0.558-1.095,1.028-1.805,1.411c-0.711,0.383-1.504,0.618-2.379,0.705l6.595,10.599
		h-3.937L60.787,15.57h-3.511v10.237h-3.149V2.576L54.127,2.576z"/>
	<path fill="#54C3C7" d="M72.981,2.576h3.15v23.229h-3.15V2.576z"/>
	<path fill="#54C3C7" d="M92.972,20.942c0.568,0.853,1.296,1.482,2.182,1.887c0.886,0.405,1.8,0.608,2.74,0.608
		c0.525,0,1.06-0.083,1.607-0.247s1.044-0.411,1.492-0.737c0.449-0.329,0.814-0.733,1.101-1.214
		c0.283-0.481,0.427-1.038,0.427-1.673c0-0.897-0.286-1.58-0.854-2.051c-0.569-0.47-1.274-0.863-2.117-1.18
		c-0.841-0.317-1.761-0.624-2.755-0.919c-0.995-0.295-1.915-0.705-2.756-1.229c-0.843-0.525-1.549-1.23-2.116-2.117
		c-0.569-0.886-0.854-2.083-0.854-3.592c0-0.677,0.148-1.399,0.443-2.165c0.296-0.766,0.76-1.466,1.395-2.101
		c0.634-0.635,1.448-1.165,2.444-1.591c0.995-0.426,2.193-0.639,3.593-0.639c1.269,0,2.482,0.175,3.642,0.524
		c1.158,0.351,2.176,1.062,3.051,2.133l-2.56,2.329c-0.394-0.611-0.951-1.104-1.674-1.476c-0.721-0.372-1.541-0.559-2.46-0.559
		c-0.876,0-1.603,0.114-2.182,0.345c-0.58,0.23-1.045,0.525-1.395,0.886c-0.351,0.36-0.597,0.75-0.738,1.165
		c-0.143,0.416-0.212,0.799-0.212,1.149c0,0.983,0.283,1.738,0.854,2.264c0.568,0.525,1.273,0.951,2.116,1.28
		c0.842,0.329,1.76,0.623,2.757,0.886c0.994,0.263,1.912,0.63,2.755,1.1c0.843,0.47,1.547,1.105,2.117,1.902
		c0.568,0.799,0.853,1.898,0.853,3.297c0,1.116-0.213,2.122-0.64,3.019c-0.426,0.897-1.001,1.652-1.722,2.264
		c-0.723,0.613-1.575,1.082-2.56,1.411c-0.985,0.327-2.034,0.491-3.149,0.491c-1.488,0-2.899-0.262-4.233-0.787
		c-1.334-0.524-2.396-1.333-3.182-2.428L92.972,20.942z"/>
	<path fill="#54C3C7" d="M116.575,5.522h-7.479V2.569h18.11v2.953h-7.479v20.277h-3.151V5.522L116.575,5.522z"/>
	<path fill="#54C3C7" d="M130.553,2.569h14.992v2.953h-11.844v6.922h11.023v2.953h-11.023v7.448h12.437v2.952h-15.585V2.569
		L130.553,2.569z"/>
	<path fill="#54C3C7" d="M149.407,2.569h14.6v2.953h-11.45v7.284h10.663v2.953h-10.663v10.04h-3.149V2.569L149.407,2.569z"/>
	<path fill="#54C3C7" d="M167.642,2.569h14.601v2.953h-11.449v7.284h10.664v2.953h-10.664v10.04h-3.149L167.642,2.569L167.642,2.569
		z"/>
	<path fill="#54C3C7" d="M185.877,2.569h14.994v2.953h-11.845v6.922h11.024v2.953h-11.024v7.448h12.437v2.952h-15.586V2.569z"/>
	<path fill="#54C3C7" d="M204.732,2.569h4.134l12.797,19.096h0.065V2.569h3.149v23.229h-4.004L207.947,6.702h-0.065v19.096h-3.148
		L204.732,2.569L204.732,2.569z"/>
</g>
<g>
	<path fill="#FFFFFF" d="M56.673,46.513c0,0.618-0.077,1.206-0.232,1.761c-0.155,0.555-0.4,1.042-0.736,1.464
		c-0.336,0.421-0.776,0.757-1.32,1.009c-0.544,0.25-1.206,0.375-1.984,0.375c-0.778,0-1.44-0.125-1.984-0.375
		c-0.544-0.252-0.984-0.588-1.32-1.009c-0.336-0.422-0.582-0.909-0.736-1.464c-0.154-0.555-0.232-1.143-0.232-1.761v-7.009h1.344
		v6.816c0,0.459,0.048,0.901,0.144,1.328c0.096,0.428,0.256,0.805,0.48,1.137c0.224,0.33,0.522,0.594,0.896,0.791
		c0.373,0.197,0.842,0.297,1.408,0.297s1.035-0.1,1.408-0.297s0.672-0.461,0.896-0.791c0.224-0.332,0.384-0.709,0.48-1.137
		c0.096-0.427,0.144-0.869,0.144-1.328v-6.816h1.344V46.513z"/>
	<path fill="#FFFFFF" d="M59.441,39.504h1.344v11.328h-1.344V39.504z"/>
	<path fill="#FFFFFF" d="M63.345,45.458h3.648V41.81h1.056v3.647h3.648v1.057h-3.648v3.648h-1.056v-3.648h-3.648V45.458z"/>
	<path fill="#FFFFFF" d="M72.705,39.504h1.52l3.488,9.312h0.032l3.6-9.312h1.424l-4.432,11.328h-1.296L72.705,39.504z"/>
	<path fill="#FFFFFF" d="M83.344,40.417c0-0.244,0.088-0.457,0.264-0.64c0.176-0.181,0.392-0.272,0.648-0.272
		c0.256,0,0.472,0.092,0.648,0.272c0.176,0.183,0.264,0.396,0.264,0.64c0,0.268-0.085,0.485-0.256,0.656
		c-0.171,0.17-0.39,0.256-0.656,0.256c-0.266,0-0.485-0.084-0.656-0.256C83.43,40.903,83.344,40.684,83.344,40.417z M83.632,43.346
		h1.248v7.488h-1.248V43.346z"/>
	<path fill="#FFFFFF" d="M87.521,48.866c0.245,0.311,0.514,0.555,0.808,0.735c0.293,0.183,0.664,0.272,1.112,0.272
		c0.192,0,0.386-0.021,0.584-0.064c0.197-0.042,0.376-0.111,0.536-0.208s0.288-0.216,0.384-0.358
		c0.096-0.146,0.144-0.318,0.144-0.521c0-0.202-0.045-0.368-0.136-0.496c-0.091-0.128-0.21-0.237-0.36-0.327
		c-0.149-0.091-0.32-0.163-0.512-0.217s-0.389-0.103-0.592-0.144c-0.352-0.076-0.688-0.16-1.008-0.256
		c-0.32-0.098-0.6-0.223-0.84-0.377c-0.24-0.154-0.432-0.355-0.576-0.6c-0.144-0.246-0.216-0.561-0.216-0.945
		c0-0.361,0.08-0.682,0.24-0.96c0.16-0.276,0.373-0.506,0.64-0.688c0.267-0.18,0.565-0.319,0.896-0.416
		c0.33-0.096,0.672-0.144,1.024-0.144c0.533,0,1.026,0.106,1.48,0.32c0.453,0.213,0.808,0.56,1.064,1.04l-1.04,0.688
		c-0.16-0.267-0.371-0.482-0.632-0.648c-0.262-0.166-0.579-0.247-0.952-0.247c-0.171,0-0.344,0.021-0.52,0.063
		c-0.176,0.043-0.333,0.106-0.472,0.192c-0.139,0.086-0.253,0.194-0.344,0.328c-0.091,0.133-0.136,0.284-0.136,0.456
		c0,0.16,0.051,0.296,0.152,0.408c0.102,0.111,0.24,0.211,0.416,0.295c0.176,0.086,0.379,0.16,0.608,0.225s0.466,0.118,0.712,0.16
		c0.331,0.064,0.645,0.146,0.944,0.248c0.298,0.102,0.56,0.238,0.784,0.408s0.4,0.385,0.528,0.641
		c0.128,0.256,0.192,0.57,0.192,0.943c0,0.427-0.085,0.789-0.256,1.088c-0.171,0.299-0.397,0.541-0.68,0.729
		c-0.283,0.188-0.603,0.322-0.96,0.408c-0.357,0.085-0.723,0.128-1.096,0.128c-0.64,0-1.192-0.101-1.656-0.296
		c-0.464-0.197-0.883-0.562-1.256-1.098L87.521,48.866z"/>
	<path fill="#FFFFFF" d="M100.705,49.057c0,0.342,0.011,0.662,0.032,0.96c0.021,0.299,0.032,0.571,0.032,0.815h-1.184
		c0-0.201-0.005-0.404-0.016-0.607c-0.011-0.202-0.016-0.41-0.016-0.624h-0.032c-0.085,0.183-0.206,0.358-0.36,0.528
		c-0.155,0.17-0.339,0.322-0.552,0.455c-0.214,0.135-0.454,0.24-0.72,0.32c-0.266,0.08-0.555,0.12-0.864,0.12
		c-0.491,0-0.915-0.075-1.272-0.226c-0.357-0.149-0.653-0.356-0.888-0.623c-0.235-0.268-0.408-0.59-0.52-0.969
		c-0.112-0.379-0.168-0.791-0.168-1.24v-4.623h1.248v4.496c0,0.629,0.138,1.125,0.416,1.488c0.277,0.361,0.709,0.543,1.296,0.543
		c0.405,0,0.754-0.068,1.048-0.207c0.294-0.14,0.533-0.336,0.72-0.592c0.187-0.257,0.325-0.562,0.416-0.912
		c0.09-0.353,0.136-0.742,0.136-1.168v-3.648h1.248V49.057z"/>
	<path fill="#FFFFFF" d="M102.976,44.306c0.384-0.396,0.84-0.687,1.368-0.872c0.528-0.186,1.064-0.28,1.608-0.28
		c1.109,0,1.909,0.263,2.4,0.784c0.491,0.523,0.736,1.316,0.736,2.385v3.215c0,0.215,0.01,0.436,0.032,0.664
		c0.022,0.229,0.048,0.439,0.08,0.633H108c-0.042-0.172-0.066-0.36-0.072-0.568c-0.006-0.208-0.008-0.393-0.008-0.553h-0.032
		c-0.246,0.385-0.574,0.699-0.984,0.945c-0.411,0.244-0.904,0.367-1.48,0.367c-0.384,0-0.744-0.049-1.08-0.145
		c-0.336-0.096-0.629-0.237-0.88-0.424c-0.251-0.188-0.451-0.42-0.6-0.697c-0.149-0.276-0.224-0.596-0.224-0.959
		c0-0.618,0.16-1.104,0.48-1.457c0.32-0.352,0.717-0.612,1.192-0.782c0.475-0.171,0.987-0.276,1.536-0.319
		c0.549-0.043,1.053-0.064,1.512-0.064h0.48v-0.225c0-0.543-0.163-0.955-0.488-1.231c-0.325-0.277-0.781-0.416-1.368-0.416
		c-0.406,0-0.803,0.065-1.192,0.2c-0.389,0.134-0.733,0.339-1.032,0.615L102.976,44.306z M106.592,47.234
		c-0.8,0-1.435,0.11-1.904,0.336c-0.469,0.224-0.704,0.593-0.704,1.104c0,0.47,0.157,0.803,0.472,1s0.707,0.295,1.176,0.295
		c0.362,0,0.68-0.061,0.952-0.184s0.499-0.285,0.68-0.488c0.181-0.201,0.32-0.438,0.416-0.711c0.096-0.271,0.149-0.562,0.16-0.873
		v-0.479L106.592,47.234L106.592,47.234z"/>
	<path fill="#FFFFFF" d="M111.488,38.737h1.248v12.096h-1.248V38.737z"/>
	<path fill="#FFFFFF" d="M119.68,39.504h4.352c0.373,0,0.768,0.043,1.184,0.129s0.83,0.222,1.24,0.408
		c0.412,0.187,0.807,0.43,1.186,0.728c0.378,0.299,0.712,0.659,1,1.08s0.518,0.907,0.688,1.456c0.172,0.549,0.256,1.17,0.256,1.863
		c0,0.694-0.084,1.314-0.256,1.865c-0.17,0.549-0.398,1.033-0.688,1.455c-0.288,0.422-0.622,0.781-1,1.08
		c-0.379,0.299-0.773,0.541-1.186,0.729c-0.41,0.187-0.824,0.322-1.24,0.408c-0.416,0.084-0.811,0.127-1.184,0.127h-4.352V39.504z
		 M121.024,49.584h2.561c0.65,0,1.254-0.084,1.809-0.256c0.554-0.17,1.033-0.435,1.439-0.791c0.404-0.357,0.726-0.813,0.959-1.369
		c0.234-0.555,0.354-1.221,0.354-2c0-0.777-0.118-1.444-0.354-2c-0.233-0.553-0.555-1.01-0.959-1.367
		c-0.405-0.357-0.887-0.621-1.439-0.793c-0.555-0.17-1.157-0.256-1.809-0.256h-2.561V49.584z"/>
	<path fill="#FFFFFF" d="M138.208,49.473c-0.447,0.576-0.938,0.979-1.472,1.208s-1.151,0.345-1.856,0.345
		c-0.586,0-1.113-0.104-1.584-0.312c-0.469-0.207-0.866-0.487-1.191-0.84c-0.325-0.352-0.575-0.768-0.752-1.248
		c-0.176-0.479-0.264-0.992-0.264-1.535c0-0.576,0.096-1.106,0.287-1.592c0.192-0.486,0.459-0.901,0.801-1.248
		c0.342-0.348,0.746-0.617,1.216-0.809s0.981-0.288,1.536-0.288c0.521,0,1.003,0.089,1.439,0.265
		c0.438,0.176,0.813,0.432,1.129,0.768c0.314,0.336,0.557,0.747,0.728,1.232c0.171,0.484,0.256,1.037,0.256,1.656v0.399h-6.048
		c0.021,0.319,0.099,0.626,0.232,0.919c0.133,0.294,0.307,0.55,0.52,0.77c0.214,0.219,0.464,0.392,0.752,0.52
		s0.604,0.191,0.943,0.191c0.545,0,1.004-0.096,1.377-0.287c0.373-0.192,0.709-0.476,1.008-0.848L138.208,49.473z M137.136,46.417
		c-0.021-0.64-0.229-1.151-0.624-1.535c-0.395-0.385-0.938-0.576-1.633-0.576c-0.693,0-1.254,0.191-1.68,0.576
		c-0.427,0.384-0.683,0.896-0.769,1.535H137.136z"/>
	<path fill="#FFFFFF" d="M140.577,48.866c0.244,0.311,0.514,0.555,0.809,0.735c0.293,0.183,0.664,0.272,1.111,0.272
		c0.191,0,0.387-0.021,0.584-0.064c0.196-0.042,0.375-0.111,0.535-0.208s0.288-0.216,0.385-0.358
		c0.097-0.146,0.145-0.318,0.145-0.521c0-0.202-0.046-0.368-0.137-0.496c-0.09-0.128-0.211-0.237-0.359-0.327
		c-0.148-0.091-0.32-0.163-0.512-0.217c-0.192-0.054-0.391-0.103-0.594-0.144c-0.352-0.076-0.688-0.16-1.008-0.256
		c-0.318-0.098-0.6-0.223-0.84-0.377s-0.432-0.355-0.576-0.6c-0.144-0.246-0.216-0.561-0.216-0.945c0-0.361,0.08-0.682,0.24-0.96
		c0.16-0.276,0.373-0.506,0.64-0.688c0.268-0.18,0.565-0.319,0.896-0.416c0.33-0.096,0.672-0.144,1.023-0.144
		c0.532,0,1.025,0.106,1.479,0.32c0.453,0.213,0.808,0.56,1.063,1.04l-1.041,0.688c-0.158-0.267-0.369-0.482-0.631-0.648
		c-0.263-0.166-0.578-0.247-0.953-0.247c-0.17,0-0.344,0.021-0.52,0.063s-0.334,0.106-0.473,0.192
		c-0.139,0.085-0.254,0.194-0.344,0.328c-0.092,0.133-0.137,0.284-0.137,0.456c0,0.16,0.051,0.296,0.152,0.408
		c0.101,0.111,0.238,0.211,0.416,0.295c0.176,0.086,0.378,0.16,0.607,0.225c0.229,0.064,0.467,0.118,0.711,0.16
		c0.332,0.064,0.646,0.146,0.944,0.248s0.56,0.238,0.784,0.408c0.224,0.17,0.398,0.385,0.527,0.641s0.191,0.57,0.191,0.943
		c0,0.427-0.085,0.789-0.256,1.088s-0.396,0.541-0.68,0.729s-0.604,0.322-0.961,0.408c-0.356,0.085-0.723,0.128-1.096,0.128
		c-0.641,0-1.191-0.101-1.656-0.296c-0.465-0.197-0.883-0.562-1.256-1.098L140.577,48.866z"/>
	<path fill="#FFFFFF" d="M147.056,40.417c0-0.244,0.088-0.457,0.265-0.64c0.176-0.181,0.393-0.272,0.646-0.272
		c0.256,0,0.473,0.092,0.648,0.272c0.176,0.183,0.264,0.396,0.264,0.64c0,0.268-0.086,0.485-0.256,0.656
		c-0.17,0.17-0.39,0.256-0.656,0.256c-0.266,0-0.484-0.084-0.655-0.256C147.141,40.903,147.056,40.684,147.056,40.417z
		 M147.344,43.346h1.248v7.488h-1.248V43.346z"/>
	<path fill="#FFFFFF" d="M158.543,50.499c0,1.364-0.35,2.401-1.047,3.111c-0.699,0.709-1.711,1.062-3.033,1.062
		c-0.735,0-1.399-0.105-1.991-0.319c-0.593-0.213-1.154-0.581-1.688-1.104l0.896-1.023c0.395,0.427,0.812,0.75,1.256,0.969
		c0.441,0.219,0.952,0.328,1.527,0.328c0.556,0,1.017-0.083,1.385-0.248c0.367-0.166,0.658-0.391,0.872-0.673
		c0.213-0.282,0.362-0.604,0.448-0.968c0.084-0.362,0.127-0.741,0.127-1.137v-0.959h-0.031c-0.299,0.479-0.688,0.832-1.168,1.055
		c-0.48,0.226-0.971,0.337-1.473,0.337c-0.586,0-1.125-0.097-1.615-0.288c-0.491-0.191-0.912-0.458-1.264-0.801
		c-0.354-0.34-0.625-0.745-0.816-1.215c-0.192-0.471-0.288-0.981-0.288-1.537c0-0.606,0.096-1.156,0.288-1.647
		c0.191-0.489,0.461-0.903,0.808-1.239s0.767-0.596,1.257-0.777c0.49-0.18,1.034-0.271,1.633-0.271c0.256,0,0.512,0.03,0.768,0.088
		c0.256,0.059,0.504,0.149,0.744,0.272c0.24,0.122,0.455,0.276,0.648,0.464c0.19,0.188,0.352,0.402,0.479,0.648h0.031v-1.28h1.248
		V50.499L158.543,50.499z M151.984,47.088c0,0.386,0.069,0.738,0.208,1.064c0.139,0.325,0.328,0.607,0.568,0.848
		c0.24,0.242,0.52,0.431,0.84,0.568c0.32,0.139,0.66,0.208,1.023,0.208c0.426,0,0.806-0.075,1.137-0.226
		c0.33-0.148,0.609-0.348,0.84-0.6c0.23-0.25,0.402-0.539,0.521-0.863c0.116-0.325,0.176-0.67,0.176-1.031
		c0-0.406-0.064-0.775-0.192-1.113c-0.128-0.335-0.31-0.626-0.544-0.871c-0.234-0.246-0.518-0.435-0.848-0.568
		c-0.332-0.133-0.693-0.199-1.088-0.199c-0.396,0-0.756,0.072-1.08,0.216c-0.326,0.144-0.604,0.341-0.832,0.593
		c-0.229,0.25-0.408,0.543-0.537,0.879C152.049,46.329,151.984,46.695,151.984,47.088z"/>
	<path fill="#FFFFFF" d="M160.847,45.122c0-0.34-0.011-0.66-0.031-0.959c-0.021-0.3-0.032-0.572-0.032-0.816h1.184
		c0,0.203,0.007,0.404,0.018,0.607c0.01,0.203,0.016,0.412,0.016,0.625h0.033c0.084-0.182,0.204-0.357,0.358-0.529
		c0.155-0.17,0.339-0.321,0.553-0.455c0.214-0.133,0.453-0.24,0.72-0.32c0.268-0.08,0.556-0.12,0.864-0.12
		c0.49,0,0.914,0.075,1.271,0.224c0.357,0.149,0.654,0.357,0.89,0.625c0.233,0.267,0.407,0.588,0.521,0.967
		c0.111,0.379,0.168,0.793,0.168,1.24v4.625h-1.248v-4.496c0-0.629-0.139-1.125-0.416-1.488s-0.709-0.544-1.297-0.544
		c-0.404,0-0.754,0.069-1.047,0.208c-0.295,0.139-0.533,0.336-0.721,0.592s-0.326,0.561-0.416,0.912
		c-0.091,0.354-0.137,0.742-0.137,1.168v3.648h-1.248L160.847,45.122L160.847,45.122z"/>
	<path fill="#FFFFFF" d="M176.432,49.473c-0.448,0.576-0.938,0.979-1.473,1.208c-0.533,0.229-1.151,0.345-1.855,0.345
		c-0.587,0-1.113-0.104-1.584-0.312c-0.471-0.207-0.867-0.487-1.191-0.84c-0.326-0.352-0.576-0.768-0.752-1.248
		c-0.177-0.479-0.265-0.992-0.265-1.535c0-0.576,0.097-1.106,0.288-1.592c0.191-0.486,0.458-0.901,0.8-1.248
		c0.343-0.348,0.747-0.617,1.216-0.809c0.471-0.191,0.981-0.288,1.536-0.288c0.522,0,1.003,0.089,1.44,0.265
		c0.437,0.176,0.812,0.432,1.128,0.768s0.557,0.747,0.728,1.232c0.172,0.484,0.256,1.037,0.256,1.656v0.399h-6.048
		c0.021,0.319,0.099,0.626,0.232,0.919c0.133,0.294,0.307,0.55,0.521,0.77c0.213,0.219,0.463,0.392,0.752,0.52
		c0.287,0.128,0.603,0.191,0.943,0.191c0.544,0,1.003-0.096,1.376-0.287c0.373-0.192,0.709-0.476,1.008-0.848L176.432,49.473z
		 M175.36,46.417c-0.021-0.64-0.229-1.151-0.624-1.535c-0.396-0.385-0.938-0.576-1.632-0.576s-1.254,0.191-1.68,0.576
		c-0.428,0.384-0.684,0.896-0.77,1.535H175.36z"/>
	<path fill="#FFFFFF" d="M178.639,45.122c0-0.34-0.012-0.66-0.031-0.959c-0.021-0.3-0.031-0.572-0.031-0.816h1.184
		c0,0.203,0.006,0.404,0.017,0.607s0.017,0.412,0.017,0.625h0.031c0.086-0.182,0.205-0.357,0.359-0.529
		c0.154-0.17,0.339-0.321,0.553-0.455c0.213-0.133,0.453-0.24,0.721-0.32c0.267-0.08,0.555-0.12,0.863-0.12
		c0.086,0,0.17,0.007,0.256,0.017c0.086,0.011,0.17,0.031,0.256,0.063l-0.08,1.265c-0.213-0.064-0.438-0.097-0.672-0.097
		c-0.768,0-1.324,0.248-1.672,0.744c-0.347,0.496-0.521,1.177-0.521,2.04v3.648h-1.248L178.639,45.122L178.639,45.122z"/>
</g>
</svg>
