<?xml version="1.0" encoding="utf-8"?>
<!-- Generator: Adobe Illustrator 16.0.0, SVG Export Plug-In . SVG Version: 6.00 Build 0)  -->
<!DOCTYPE svg PUBLIC "-//W3C//DTD SVG 1.1//EN" "http://www.w3.org/Graphics/SVG/1.1/DTD/svg11.dtd">
<svg version="1.1" id="Layer_1" xmlns="http://www.w3.org/2000/svg" xmlns:xlink="http://www.w3.org/1999/xlink" x="0px" y="0px"
	 width="229.333px" height="59.833px" viewBox="0 0 229.333 59.833" enable-background="new 0 0 229.333 59.833"
	 xml:space="preserve">
<polygon fill="#7FCECA" points="225.345,58.167 2.511,58.167 12.511,45.833 2.511,32.833 225.345,32.833 215.345,45.833 "/>
<g>
	<path fill="#7FCECA" d="M2.979,2.576H7.67l7.383,17.586h0.131l7.317-17.586h4.691v23.229h-3.149V6.709h-0.065l-7.842,19.096h-2.101
		L6.194,6.709H6.128v19.096H2.979V2.576z"/>
	<path fill="#7FCECA" d="M39.506,2.576h2.854l9.941,23.229h-3.675l-2.329-5.742H35.241l-2.297,5.742h-3.675L39.506,2.576z"/>
	<path fill="#7FCECA" d="M54.127,2.576h8.17c1.487,0,2.712,0.202,3.675,0.607c0.962,0.405,1.723,0.919,2.28,1.542
		c0.558,0.623,0.946,1.323,1.165,2.1c0.218,0.776,0.328,1.526,0.328,2.248c0,0.744-0.132,1.459-0.394,2.149
		c-0.263,0.688-0.64,1.312-1.132,1.87c-0.492,0.558-1.095,1.028-1.805,1.411c-0.711,0.383-1.504,0.618-2.379,0.705l6.595,10.599
		h-3.937l-5.906-10.237h-3.511v10.237h-3.149L54.127,2.576L54.127,2.576z"/>
	<path fill="#7FCECA" d="M72.981,2.576h3.15v23.229h-3.15V2.576z"/>
	<path fill="#7FCECA" d="M92.972,20.942c0.568,0.853,1.296,1.482,2.182,1.887s1.8,0.608,2.74,0.608c0.525,0,1.06-0.083,1.607-0.247
		c0.547-0.164,1.044-0.411,1.492-0.737c0.449-0.329,0.814-0.733,1.101-1.214c0.283-0.481,0.427-1.038,0.427-1.673
		c0-0.897-0.286-1.58-0.854-2.051c-0.569-0.47-1.274-0.863-2.117-1.18c-0.841-0.317-1.761-0.624-2.755-0.919
		c-0.995-0.295-1.915-0.705-2.756-1.229c-0.843-0.525-1.549-1.23-2.116-2.117c-0.569-0.886-0.854-2.083-0.854-3.592
		c0-0.677,0.148-1.399,0.443-2.165c0.296-0.766,0.76-1.466,1.395-2.101c0.634-0.635,1.448-1.165,2.444-1.591
		c0.995-0.426,2.193-0.639,3.593-0.639c1.269,0,2.482,0.175,3.642,0.524c1.158,0.351,2.176,1.062,3.051,2.133l-2.56,2.329
		c-0.394-0.611-0.951-1.104-1.674-1.476c-0.721-0.372-1.541-0.559-2.46-0.559c-0.876,0-1.603,0.114-2.182,0.345
		c-0.58,0.23-1.045,0.525-1.395,0.886c-0.351,0.36-0.597,0.75-0.738,1.165c-0.143,0.416-0.212,0.799-0.212,1.149
		c0,0.983,0.283,1.738,0.854,2.264c0.568,0.525,1.273,0.951,2.116,1.28c0.842,0.329,1.76,0.623,2.757,0.886
		c0.994,0.263,1.912,0.63,2.755,1.1c0.843,0.47,1.547,1.105,2.117,1.902c0.568,0.799,0.853,1.898,0.853,3.297
		c0,1.116-0.213,2.122-0.64,3.019c-0.426,0.897-1.001,1.652-1.722,2.264c-0.723,0.613-1.575,1.082-2.56,1.411
		c-0.985,0.327-2.034,0.491-3.149,0.491c-1.488,0-2.899-0.262-4.233-0.787c-1.334-0.524-2.396-1.333-3.182-2.428L92.972,20.942z"/>
	<path fill="#7FCECA" d="M116.574,5.522h-7.479V2.569h18.111v2.953h-7.48v20.277h-3.151V5.522L116.574,5.522z"/>
	<path fill="#7FCECA" d="M130.553,2.569h14.993v2.953h-11.844v6.922h11.023v2.953h-11.023v7.448h12.436v2.952h-15.585V2.569
		L130.553,2.569z"/>
	<path fill="#7FCECA" d="M149.406,2.569h14.601v2.953h-11.451v7.284h10.663v2.953h-10.663v10.04h-3.149V2.569L149.406,2.569z"/>
	<path fill="#7FCECA" d="M167.642,2.569h14.6v2.953h-11.449v7.284h10.664v2.953h-10.664v10.04h-3.149L167.642,2.569L167.642,2.569z"
		/>
	<path fill="#7FCECA" d="M185.878,2.569h14.994v2.953h-11.845v6.922h11.024v2.953h-11.024v7.448h12.437v2.952h-15.586V2.569z"/>
	<path fill="#7FCECA" d="M204.732,2.569h4.134l12.797,19.096h0.065V2.569h3.149v23.229h-4.004L207.947,6.702h-0.065v19.096h-3.149
		V2.569L204.732,2.569z"/>
</g>
<g>
	<path fill="#FFFFFF" d="M56.673,46.513c0,0.619-0.077,1.206-0.232,1.761s-0.4,1.042-0.736,1.464
		c-0.336,0.421-0.776,0.757-1.32,1.008c-0.544,0.25-1.206,0.376-1.984,0.376s-1.44-0.126-1.984-0.376
		c-0.544-0.251-0.984-0.587-1.32-1.008c-0.336-0.422-0.582-0.909-0.736-1.464s-0.232-1.142-0.232-1.761v-7.008h1.344v6.816
		c0,0.459,0.048,0.901,0.144,1.328c0.096,0.427,0.256,0.805,0.48,1.136c0.224,0.331,0.522,0.595,0.896,0.792
		c0.373,0.197,0.842,0.296,1.408,0.296s1.035-0.099,1.408-0.296c0.373-0.197,0.672-0.461,0.896-0.792s0.384-0.709,0.48-1.136
		s0.144-0.869,0.144-1.328v-6.816h1.344V46.513z"/>
	<path fill="#FFFFFF" d="M59.441,39.505h1.344v11.328h-1.344V39.505z"/>
	<path fill="#FFFFFF" d="M63.345,45.458h3.648V41.81h1.056v3.648h3.648v1.056h-3.648v3.648h-1.056v-3.648h-3.648V45.458z"/>
	<path fill="#FFFFFF" d="M72.705,39.505h1.52l3.488,9.312h0.032l3.6-9.312h1.424l-4.432,11.328h-1.296L72.705,39.505z"/>
	<path fill="#FFFFFF" d="M83.344,40.417c0-0.245,0.088-0.458,0.264-0.64c0.176-0.181,0.392-0.272,0.648-0.272
		s0.472,0.091,0.648,0.272c0.176,0.182,0.264,0.395,0.264,0.64c0,0.267-0.085,0.485-0.256,0.656c-0.171,0.17-0.39,0.256-0.656,0.256
		s-0.485-0.085-0.656-0.256C83.43,40.903,83.344,40.684,83.344,40.417z M83.632,43.346h1.248v7.488h-1.248V43.346z"/>
	<path fill="#FFFFFF" d="M87.521,48.866c0.245,0.31,0.514,0.555,0.808,0.735c0.293,0.182,0.664,0.272,1.112,0.272
		c0.192,0,0.386-0.021,0.584-0.064c0.197-0.042,0.376-0.111,0.536-0.208c0.16-0.096,0.288-0.216,0.384-0.359
		c0.096-0.145,0.144-0.317,0.144-0.521c0-0.202-0.045-0.368-0.136-0.496s-0.21-0.237-0.36-0.327
		c-0.149-0.091-0.32-0.163-0.512-0.217c-0.192-0.053-0.389-0.102-0.592-0.144c-0.352-0.075-0.688-0.16-1.008-0.256
		c-0.32-0.097-0.6-0.222-0.84-0.376c-0.24-0.154-0.432-0.355-0.576-0.6c-0.144-0.246-0.216-0.561-0.216-0.945
		c0-0.362,0.08-0.682,0.24-0.96c0.16-0.277,0.373-0.506,0.64-0.688c0.267-0.181,0.565-0.32,0.896-0.416
		c0.33-0.096,0.672-0.144,1.024-0.144c0.533,0,1.026,0.107,1.48,0.32c0.453,0.213,0.808,0.56,1.064,1.04l-1.04,0.688
		c-0.16-0.267-0.371-0.482-0.632-0.648c-0.262-0.166-0.579-0.248-0.952-0.248c-0.171,0-0.344,0.021-0.52,0.064
		c-0.176,0.042-0.333,0.106-0.472,0.192s-0.253,0.195-0.344,0.328c-0.091,0.133-0.136,0.285-0.136,0.456
		c0,0.16,0.051,0.296,0.152,0.408c0.102,0.112,0.24,0.211,0.416,0.296c0.176,0.085,0.379,0.16,0.608,0.224
		c0.229,0.064,0.466,0.118,0.712,0.16c0.331,0.064,0.645,0.146,0.944,0.248c0.298,0.102,0.56,0.238,0.784,0.408
		c0.224,0.171,0.4,0.385,0.528,0.641s0.192,0.57,0.192,0.943c0,0.427-0.085,0.79-0.256,1.088c-0.171,0.299-0.397,0.542-0.68,0.729
		s-0.603,0.322-0.96,0.408c-0.357,0.085-0.723,0.128-1.096,0.128c-0.64,0-1.192-0.1-1.656-0.296
		c-0.464-0.197-0.883-0.562-1.256-1.097L87.521,48.866z"/>
	<path fill="#FFFFFF" d="M100.705,49.057c0,0.342,0.011,0.662,0.032,0.96c0.021,0.299,0.032,0.571,0.032,0.816h-1.184
		c0-0.202-0.005-0.405-0.016-0.608c-0.011-0.202-0.016-0.41-0.016-0.624h-0.032c-0.085,0.182-0.206,0.358-0.36,0.528
		c-0.155,0.171-0.339,0.323-0.552,0.456c-0.214,0.134-0.454,0.24-0.72,0.32s-0.555,0.12-0.864,0.12
		c-0.491,0-0.915-0.075-1.272-0.225s-0.653-0.357-0.888-0.624c-0.235-0.267-0.408-0.589-0.52-0.968s-0.168-0.792-0.168-1.24v-4.624
		h1.248v4.496c0,0.63,0.138,1.126,0.416,1.488c0.277,0.362,0.709,0.544,1.296,0.544c0.405,0,0.754-0.069,1.048-0.208
		s0.533-0.336,0.72-0.592c0.187-0.256,0.325-0.561,0.416-0.912c0.09-0.352,0.136-0.741,0.136-1.168v-3.648h1.248V49.057z"/>
	<path fill="#FFFFFF" d="M102.976,44.306c0.384-0.395,0.84-0.686,1.368-0.872s1.064-0.28,1.608-0.28c1.109,0,1.909,0.262,2.4,0.784
		c0.491,0.523,0.736,1.317,0.736,2.384v3.216c0,0.214,0.01,0.435,0.032,0.664s0.048,0.439,0.08,0.632H108
		c-0.042-0.171-0.066-0.36-0.072-0.568s-0.008-0.392-0.008-0.552h-0.032c-0.246,0.384-0.574,0.699-0.984,0.944
		c-0.411,0.245-0.904,0.368-1.48,0.368c-0.384,0-0.744-0.049-1.08-0.145s-0.629-0.237-0.88-0.424
		c-0.251-0.187-0.451-0.419-0.6-0.696s-0.224-0.597-0.224-0.96c0-0.618,0.16-1.104,0.48-1.456s0.717-0.613,1.192-0.783
		c0.475-0.171,0.987-0.277,1.536-0.32s1.053-0.064,1.512-0.064h0.48v-0.224c0-0.544-0.163-0.955-0.488-1.232
		s-0.781-0.416-1.368-0.416c-0.406,0-0.803,0.066-1.192,0.2c-0.389,0.134-0.733,0.339-1.032,0.616L102.976,44.306z M106.592,47.234
		c-0.8,0-1.435,0.111-1.904,0.336c-0.469,0.224-0.704,0.592-0.704,1.104c0,0.47,0.157,0.803,0.472,1s0.707,0.296,1.176,0.296
		c0.362,0,0.68-0.061,0.952-0.184s0.499-0.285,0.68-0.488c0.181-0.202,0.32-0.439,0.416-0.712c0.096-0.271,0.149-0.562,0.16-0.872
		v-0.479H106.592z"/>
	<path fill="#FFFFFF" d="M111.488,38.737h1.248v12.096h-1.248V38.737z"/>
	<path fill="#FFFFFF" d="M119.68,39.505h4.352c0.373,0,0.768,0.043,1.184,0.128c0.416,0.086,0.83,0.222,1.24,0.408
		c0.411,0.187,0.806,0.43,1.185,0.728c0.378,0.299,0.712,0.659,1,1.08s0.518,0.907,0.688,1.456c0.171,0.549,0.256,1.17,0.256,1.864
		s-0.085,1.314-0.256,1.864c-0.17,0.55-0.399,1.034-0.688,1.456c-0.288,0.421-0.622,0.781-1,1.08
		c-0.379,0.299-0.773,0.541-1.185,0.728c-0.41,0.187-0.824,0.323-1.24,0.408s-0.811,0.128-1.184,0.128h-4.352V39.505z
		 M121.024,49.585h2.561c0.65,0,1.253-0.085,1.808-0.256c0.554-0.171,1.034-0.435,1.44-0.792c0.404-0.357,0.725-0.813,0.959-1.368
		s0.353-1.221,0.353-2c0-0.778-0.118-1.445-0.353-2c-0.234-0.554-0.555-1.01-0.959-1.368c-0.406-0.357-0.887-0.621-1.44-0.792
		c-0.555-0.17-1.157-0.256-1.808-0.256h-2.561V49.585z"/>
	<path fill="#FFFFFF" d="M138.208,49.473c-0.448,0.576-0.938,0.979-1.472,1.208c-0.534,0.229-1.152,0.345-1.856,0.345
		c-0.587,0-1.114-0.104-1.584-0.312s-0.867-0.488-1.192-0.84s-0.575-0.768-0.752-1.248c-0.176-0.48-0.264-0.992-0.264-1.536
		c0-0.576,0.096-1.106,0.288-1.592s0.458-0.901,0.8-1.248s0.747-0.616,1.216-0.808c0.47-0.192,0.981-0.288,1.536-0.288
		c0.522,0,1.003,0.088,1.44,0.264s0.813,0.432,1.128,0.768s0.557,0.747,0.728,1.232s0.256,1.037,0.256,1.656v0.4h-6.048
		c0.021,0.319,0.099,0.626,0.232,0.919c0.133,0.294,0.307,0.55,0.52,0.769c0.214,0.219,0.464,0.392,0.752,0.52
		s0.603,0.192,0.944,0.192c0.544,0,1.003-0.096,1.376-0.288s0.709-0.475,1.008-0.848L138.208,49.473z M137.136,46.417
		c-0.021-0.64-0.229-1.152-0.624-1.536c-0.395-0.384-0.938-0.576-1.632-0.576s-1.254,0.192-1.68,0.576
		c-0.427,0.384-0.683,0.896-0.769,1.536H137.136z"/>
	<path fill="#FFFFFF" d="M140.576,48.866c0.245,0.31,0.515,0.555,0.809,0.735c0.293,0.182,0.664,0.272,1.111,0.272
		c0.192,0,0.387-0.021,0.584-0.064c0.197-0.042,0.376-0.111,0.536-0.208c0.16-0.096,0.288-0.216,0.384-0.359
		c0.097-0.145,0.145-0.317,0.145-0.521c0-0.202-0.046-0.368-0.136-0.496c-0.091-0.128-0.211-0.237-0.36-0.327
		c-0.149-0.091-0.32-0.163-0.512-0.217c-0.192-0.053-0.39-0.102-0.593-0.144c-0.352-0.075-0.688-0.16-1.008-0.256
		c-0.319-0.097-0.6-0.222-0.84-0.376s-0.432-0.355-0.576-0.6c-0.144-0.246-0.216-0.561-0.216-0.945c0-0.362,0.08-0.682,0.24-0.96
		c0.16-0.277,0.373-0.506,0.64-0.688c0.267-0.181,0.565-0.32,0.896-0.416c0.33-0.096,0.672-0.144,1.023-0.144
		c0.533,0,1.026,0.107,1.48,0.32c0.453,0.213,0.808,0.56,1.063,1.04l-1.04,0.688c-0.159-0.267-0.37-0.482-0.632-0.648
		s-0.578-0.248-0.952-0.248c-0.17,0-0.344,0.021-0.52,0.064s-0.334,0.106-0.472,0.192c-0.139,0.085-0.254,0.195-0.345,0.328
		s-0.136,0.285-0.136,0.456c0,0.16,0.051,0.296,0.152,0.408c0.101,0.112,0.239,0.211,0.416,0.296
		c0.176,0.085,0.378,0.16,0.607,0.224c0.229,0.064,0.467,0.118,0.712,0.16c0.331,0.064,0.646,0.146,0.944,0.248
		s0.56,0.238,0.784,0.408c0.224,0.171,0.399,0.385,0.528,0.641c0.128,0.256,0.191,0.57,0.191,0.943c0,0.427-0.085,0.79-0.256,1.088
		c-0.171,0.299-0.397,0.542-0.68,0.729c-0.283,0.187-0.604,0.322-0.96,0.408c-0.357,0.085-0.723,0.128-1.097,0.128
		c-0.64,0-1.191-0.1-1.655-0.296c-0.465-0.197-0.883-0.562-1.257-1.097L140.576,48.866z"/>
	<path fill="#FFFFFF" d="M147.056,40.417c0-0.245,0.088-0.458,0.265-0.64c0.176-0.181,0.392-0.272,0.647-0.272
		s0.472,0.091,0.648,0.272c0.176,0.182,0.264,0.395,0.264,0.64c0,0.267-0.086,0.485-0.256,0.656c-0.171,0.17-0.39,0.256-0.656,0.256
		s-0.485-0.085-0.656-0.256C147.141,40.903,147.056,40.684,147.056,40.417z M147.344,43.346h1.248v7.488h-1.248V43.346z"/>
	<path fill="#FFFFFF" d="M158.544,50.498c0,1.365-0.35,2.402-1.048,3.112c-0.699,0.709-1.71,1.063-3.032,1.063
		c-0.736,0-1.4-0.106-1.992-0.32c-0.592-0.213-1.154-0.581-1.688-1.104l0.896-1.024c0.395,0.427,0.813,0.75,1.256,0.969
		c0.442,0.218,0.952,0.328,1.528,0.328c0.555,0,1.016-0.083,1.384-0.248c0.368-0.166,0.658-0.39,0.872-0.673
		c0.213-0.282,0.362-0.605,0.448-0.968c0.085-0.362,0.128-0.741,0.128-1.136v-0.96h-0.032c-0.299,0.479-0.688,0.832-1.168,1.056
		c-0.48,0.225-0.971,0.336-1.472,0.336c-0.587,0-1.126-0.096-1.616-0.288c-0.491-0.191-0.912-0.458-1.264-0.8
		c-0.353-0.341-0.624-0.746-0.816-1.216s-0.288-0.981-0.288-1.536c0-0.607,0.096-1.157,0.288-1.648
		c0.192-0.49,0.461-0.904,0.808-1.24s0.766-0.595,1.256-0.776c0.491-0.181,1.035-0.272,1.633-0.272c0.256,0,0.512,0.03,0.768,0.088
		s0.504,0.149,0.744,0.272s0.456,0.277,0.648,0.464c0.191,0.187,0.352,0.403,0.479,0.648h0.032v-1.28h1.248V50.498z M151.984,47.089
		c0,0.385,0.069,0.738,0.208,1.064c0.139,0.325,0.328,0.607,0.568,0.848s0.52,0.43,0.84,0.568s0.661,0.208,1.024,0.208
		c0.426,0,0.805-0.075,1.136-0.225c0.33-0.149,0.61-0.349,0.84-0.6s0.402-0.539,0.521-0.864c0.117-0.325,0.176-0.669,0.176-1.031
		c0-0.406-0.064-0.776-0.192-1.113c-0.128-0.335-0.31-0.626-0.544-0.871c-0.234-0.246-0.518-0.435-0.848-0.568
		c-0.331-0.133-0.693-0.2-1.088-0.2c-0.396,0-0.755,0.072-1.08,0.216c-0.326,0.144-0.603,0.341-0.832,0.592
		c-0.229,0.251-0.408,0.544-0.536,0.88S151.984,46.695,151.984,47.089z"/>
	<path fill="#FFFFFF" d="M160.847,45.122c0-0.341-0.011-0.661-0.031-0.96c-0.021-0.299-0.032-0.571-0.032-0.816h1.184
		c0,0.203,0.006,0.405,0.017,0.608c0.01,0.203,0.016,0.411,0.016,0.624h0.032c0.085-0.181,0.205-0.357,0.359-0.528
		c0.155-0.17,0.339-0.322,0.553-0.456c0.213-0.133,0.453-0.24,0.72-0.32s0.555-0.12,0.864-0.12c0.49,0,0.914,0.075,1.271,0.224
		s0.653,0.357,0.889,0.624c0.234,0.267,0.407,0.589,0.52,0.968c0.112,0.378,0.168,0.792,0.168,1.24v4.624h-1.248v-4.496
		c0-0.629-0.139-1.125-0.416-1.488s-0.709-0.544-1.296-0.544c-0.405,0-0.755,0.069-1.048,0.208c-0.294,0.139-0.533,0.336-0.72,0.592
		c-0.188,0.256-0.326,0.56-0.416,0.912c-0.091,0.353-0.137,0.742-0.137,1.168v3.648h-1.248V45.122z"/>
	<path fill="#FFFFFF" d="M176.432,49.473c-0.448,0.576-0.938,0.979-1.472,1.208c-0.534,0.229-1.152,0.345-1.856,0.345
		c-0.587,0-1.114-0.104-1.584-0.312s-0.867-0.488-1.192-0.84s-0.575-0.768-0.752-1.248c-0.176-0.48-0.264-0.992-0.264-1.536
		c0-0.576,0.096-1.106,0.288-1.592s0.458-0.901,0.8-1.248s0.747-0.616,1.216-0.808c0.47-0.192,0.981-0.288,1.536-0.288
		c0.522,0,1.003,0.088,1.44,0.264s0.813,0.432,1.128,0.768s0.557,0.747,0.728,1.232s0.256,1.037,0.256,1.656v0.4h-6.048
		c0.021,0.319,0.099,0.626,0.232,0.919c0.133,0.294,0.307,0.55,0.52,0.769c0.214,0.219,0.464,0.392,0.752,0.52
		s0.603,0.192,0.944,0.192c0.544,0,1.003-0.096,1.376-0.288s0.709-0.475,1.008-0.848L176.432,49.473z M175.36,46.417
		c-0.021-0.64-0.229-1.152-0.624-1.536c-0.395-0.384-0.938-0.576-1.632-0.576s-1.254,0.192-1.68,0.576
		c-0.427,0.384-0.683,0.896-0.769,1.536H175.36z"/>
	<path fill="#FFFFFF" d="M178.639,45.122c0-0.341-0.011-0.661-0.031-0.96c-0.021-0.299-0.032-0.571-0.032-0.816h1.184
		c0,0.203,0.006,0.405,0.017,0.608c0.01,0.203,0.016,0.411,0.016,0.624h0.032c0.085-0.181,0.205-0.357,0.359-0.528
		c0.155-0.17,0.339-0.322,0.553-0.456c0.213-0.133,0.453-0.24,0.72-0.32s0.555-0.12,0.864-0.12c0.085,0,0.17,0.006,0.256,0.016
		c0.085,0.011,0.17,0.032,0.256,0.064l-0.08,1.264c-0.214-0.064-0.438-0.096-0.672-0.096c-0.768,0-1.325,0.248-1.672,0.744
		s-0.521,1.176-0.521,2.04v3.648h-1.248V45.122z"/>
</g>
</svg>
